<svg xmlns="http://www.w3.org/2000/svg" xmlns:xlink="http://www.w3.org/1999/xlink" version="1.1" x="0px" y="0px" viewBox="0 0 100 125" enable-background="new 0 0 100 100" xml:space="preserve"><path d="M52.5,62.5l5,2.5L50,80l7.5,5l-3.3,10h38.3V45H56L52.5,62.5z M75,55h10v10H75V55z M75,75h10v10H75V75z M60,55h10v10H60V55z   M60,75h10v10H60V75z"/><path d="M51.9,64.2l-5.2-2.1l2.4-20.3L7.7,45.2l4,49.8l41-3.3l0.8-7.6l-7.9-4.4L51.9,64.2z M16,54.5l10-0.8l0.8,10l-10,0.8L16,54.5z   M18.4,84.4l-0.8-10l10-0.8l0.8,10L18.4,84.4z M30.9,53.3l10-0.8l0.8,10l-10,0.8L30.9,53.3z M33.3,83.2l-0.8-10l10-0.8l0.8,10  L33.3,83.2z"/><polygon points="57.5,32.5 55.5,42.5 95,42.5 85,32.5 "/><polygon points="50.5,29.2 14.2,32.1 5,42.9 49.4,39.3 "/><text x="0" y="115" fill="#000000" font-size="5px" font-weight="bold" font-family="'Helvetica Neue', Helvetica, Arial-Unicode, Arial, Sans-serif">Created by Arthur Shlain</text><text x="0" y="120" fill="#000000" font-size="5px" font-weight="bold" font-family="'Helvetica Neue', Helvetica, Arial-Unicode, Arial, Sans-serif">from the Noun Project</text></svg>